# xmcd
#
# Track frame offsets:
#	150
#	19782
#	36795
#	54407
#	75287
#	93769
#	116630
#	137558
#	157008
#
# Disc length: 2374 seconds
#
# Revision: 0
# Processed by: cddbd v1.4PL0 Copyright (c) Steve Scherf et al.
# Submitted via: dBpowerAMP V4.0
#
DISCID=62094409
DTITLE=Bill Coday - Memories
DYEAR=1900
DGENRE=Blues
TTITLE0=Track01 We're Gonna' Miss You Johnnie(Tribute To Johnnie Taylor)
TTITLE1=Track02  My Outside Woman
TTITLE2=Track03  Bo Hawg Grind
TTITLE3=Track04  You Changed
TTITLE4=Track05  It's A Blues Thang
TTITLE5=Track06  When This Dance Is Over
TTITLE6=Track07   Moans Grunts and Groans
TTITLE7=Track08   Conntry Back Hills Juke Joint
TTITLE8=Track09  We're Gonna' Miss You Johnnie (Extended Mix)
EXTD=
EXTT0=
EXTT1=
EXTT2=
EXTT3=
EXTT4=
EXTT5=
EXTT6=
EXTT7=
EXTT8=
PLAYORDER=
